<svg width="142" height="126" viewBox="0 0 142 126" fill="none" xmlns="http://www.w3.org/2000/svg">
<path d="M4.94 118.127V106.167H0.1V104.027H12.34V106.167H7.5V118.127H4.94ZM13.1594 118.127V108.347H15.5994V110.707H15.3994C15.586 109.907 15.9527 109.301 16.4994 108.887C17.046 108.461 17.7727 108.214 18.6794 108.147L19.4394 108.087L19.5994 110.207L18.1594 110.347C17.346 110.427 16.7327 110.681 16.3194 111.107C15.906 111.521 15.6994 112.107 15.6994 112.867V118.127H13.1594ZM25.1138 118.327C24.4071 118.327 23.7738 118.194 23.2138 117.927C22.6671 117.647 22.2338 117.274 21.9137 116.807C21.6071 116.341 21.4538 115.814 21.4538 115.227C21.4538 114.507 21.6404 113.941 22.0138 113.527C22.3871 113.101 22.9938 112.794 23.8338 112.607C24.6738 112.421 25.8004 112.327 27.2138 112.327H28.2138V113.767H27.2338C26.6071 113.767 26.0804 113.794 25.6538 113.847C25.2271 113.887 24.8804 113.961 24.6138 114.067C24.3604 114.161 24.1738 114.294 24.0538 114.467C23.9471 114.641 23.8938 114.854 23.8938 115.107C23.8938 115.547 24.0471 115.907 24.3538 116.187C24.6604 116.467 25.0871 116.607 25.6338 116.607C26.0738 116.607 26.4604 116.507 26.7938 116.307C27.1404 116.094 27.4138 115.807 27.6138 115.447C27.8138 115.087 27.9138 114.674 27.9138 114.207V111.907C27.9138 111.241 27.7671 110.761 27.4738 110.467C27.1804 110.174 26.6871 110.027 25.9938 110.027C25.4471 110.027 24.8871 110.114 24.3138 110.287C23.7404 110.447 23.1604 110.701 22.5738 111.047L21.8538 109.347C22.2004 109.107 22.6071 108.901 23.0738 108.727C23.5538 108.541 24.0538 108.401 24.5738 108.307C25.1071 108.201 25.6071 108.147 26.0738 108.147C27.0338 108.147 27.8204 108.294 28.4338 108.587C29.0604 108.881 29.5271 109.327 29.8338 109.927C30.1404 110.514 30.2938 111.274 30.2938 112.207V118.127H27.9538V116.047H28.1138C28.0204 116.514 27.8338 116.921 27.5538 117.267C27.2871 117.601 26.9471 117.861 26.5338 118.047C26.1204 118.234 25.6471 118.327 25.1138 118.327ZM33.8313 118.127V108.347H36.2713V110.307H36.0513C36.3446 109.601 36.7979 109.067 37.4113 108.707C38.0379 108.334 38.7446 108.147 39.5313 108.147C40.3179 108.147 40.9646 108.294 41.4713 108.587C41.9779 108.881 42.3579 109.327 42.6113 109.927C42.8646 110.514 42.9913 111.261 42.9913 112.167V118.127H40.4913V112.287C40.4913 111.781 40.4246 111.367 40.2913 111.047C40.1713 110.727 39.9779 110.494 39.7113 110.347C39.4579 110.187 39.1313 110.107 38.7313 110.107C38.2513 110.107 37.8313 110.214 37.4713 110.427C37.1113 110.627 36.8313 110.921 36.6313 111.307C36.4313 111.681 36.3313 112.121 36.3313 112.627V118.127H33.8313ZM50.1105 118.327C49.5638 118.327 49.0305 118.281 48.5105 118.187C48.0038 118.094 47.5371 117.967 47.1105 117.807C46.6838 117.634 46.3105 117.421 45.9905 117.167L46.6305 115.527C46.9638 115.741 47.3238 115.927 47.7105 116.087C48.0971 116.247 48.4971 116.367 48.9105 116.447C49.3238 116.527 49.7305 116.567 50.1305 116.567C50.7705 116.567 51.2438 116.461 51.5505 116.247C51.8705 116.021 52.0305 115.727 52.0305 115.367C52.0305 115.061 51.9238 114.827 51.7105 114.667C51.5105 114.494 51.2038 114.367 50.7905 114.287L48.7905 113.907C47.9638 113.747 47.3305 113.447 46.8905 113.007C46.4638 112.554 46.2505 111.974 46.2505 111.267C46.2505 110.627 46.4238 110.074 46.7705 109.607C47.1305 109.141 47.6238 108.781 48.2505 108.527C48.8771 108.274 49.5971 108.147 50.4105 108.147C50.8771 108.147 51.3305 108.194 51.7705 108.287C52.2105 108.367 52.6238 108.494 53.0105 108.667C53.4105 108.827 53.7571 109.041 54.0505 109.307L53.3705 110.947C53.1171 110.734 52.8238 110.554 52.4905 110.407C52.1571 110.247 51.8105 110.127 51.4505 110.047C51.1038 109.954 50.7638 109.907 50.4305 109.907C49.7771 109.907 49.2905 110.021 48.9705 110.247C48.6638 110.474 48.5105 110.774 48.5105 111.147C48.5105 111.427 48.6038 111.661 48.7905 111.847C48.9771 112.034 49.2638 112.161 49.6505 112.227L51.6505 112.607C52.5171 112.767 53.1705 113.061 53.6105 113.487C54.0638 113.914 54.2905 114.487 54.2905 115.207C54.2905 115.861 54.1171 116.421 53.7705 116.887C53.4238 117.354 52.9371 117.714 52.3105 117.967C51.6838 118.207 50.9505 118.327 50.1105 118.327ZM57.2961 121.727V108.347H59.7361V110.407H59.5361C59.7361 109.727 60.1428 109.181 60.7561 108.767C61.3828 108.354 62.1094 108.147 62.9361 108.147C63.7894 108.147 64.5361 108.354 65.1761 108.767C65.8294 109.181 66.3361 109.767 66.6961 110.527C67.0561 111.274 67.2361 112.174 67.2361 113.227C67.2361 114.267 67.0561 115.174 66.6961 115.947C66.3361 116.707 65.8361 117.294 65.1961 117.707C64.5561 118.121 63.8028 118.327 62.9361 118.327C62.1228 118.327 61.4094 118.127 60.7961 117.727C60.1828 117.314 59.7694 116.781 59.5561 116.127H59.7961V121.727H57.2961ZM62.2361 116.427C62.9828 116.427 63.5828 116.161 64.0361 115.627C64.4894 115.081 64.7161 114.281 64.7161 113.227C64.7161 112.161 64.4894 111.367 64.0361 110.847C63.5828 110.314 62.9828 110.047 62.2361 110.047C61.4894 110.047 60.8894 110.314 60.4361 110.847C59.9828 111.367 59.7561 112.161 59.7561 113.227C59.7561 114.281 59.9828 115.081 60.4361 115.627C60.8894 116.161 61.4894 116.427 62.2361 116.427ZM74.7483 118.327C73.7349 118.327 72.8549 118.121 72.1083 117.707C71.3616 117.294 70.7816 116.707 70.3683 115.947C69.9549 115.174 69.7483 114.267 69.7483 113.227C69.7483 112.187 69.9549 111.287 70.3683 110.527C70.7816 109.767 71.3616 109.181 72.1083 108.767C72.8549 108.354 73.7349 108.147 74.7483 108.147C75.7616 108.147 76.6416 108.354 77.3883 108.767C78.1349 109.181 78.7149 109.767 79.1283 110.527C79.5416 111.287 79.7483 112.187 79.7483 113.227C79.7483 114.267 79.5416 115.174 79.1283 115.947C78.7149 116.707 78.1349 117.294 77.3883 117.707C76.6416 118.121 75.7616 118.327 74.7483 118.327ZM74.7483 116.427C75.4949 116.427 76.0949 116.161 76.5483 115.627C77.0016 115.081 77.2283 114.281 77.2283 113.227C77.2283 112.161 77.0016 111.367 76.5483 110.847C76.0949 110.314 75.4949 110.047 74.7483 110.047C74.0016 110.047 73.4016 110.314 72.9483 110.847C72.4949 111.367 72.2683 112.161 72.2683 113.227C72.2683 114.281 72.4949 115.081 72.9483 115.627C73.4016 116.161 74.0016 116.427 74.7483 116.427ZM82.8117 118.127V108.347H85.2517V110.707H85.0517C85.2384 109.907 85.6051 109.301 86.1517 108.887C86.6984 108.461 87.4251 108.214 88.3317 108.147L89.0917 108.087L89.2517 110.207L87.8117 110.347C86.9984 110.427 86.3851 110.681 85.9717 111.107C85.5584 111.521 85.3517 112.107 85.3517 112.867V118.127H82.8117ZM96.6902 118.327C95.3835 118.327 94.4102 118.001 93.7702 117.347C93.1302 116.694 92.8102 115.741 92.8102 114.487V110.227H90.9302V108.347H92.8102V105.427H95.3102V108.347H98.2702V110.227H95.3102V114.347C95.3102 114.987 95.4502 115.467 95.7302 115.787C96.0102 116.107 96.4635 116.267 97.0902 116.267C97.2768 116.267 97.4702 116.247 97.6702 116.207C97.8702 116.154 98.0768 116.101 98.2902 116.047L98.6702 117.887C98.4302 118.021 98.1235 118.127 97.7502 118.207C97.3902 118.287 97.0368 118.327 96.6902 118.327ZM101.126 118.127V104.027H110.346V106.067H103.686V110.047H109.926V112.087H103.686V118.127H101.126ZM115.946 118.327C115.239 118.327 114.606 118.194 114.046 117.927C113.499 117.647 113.066 117.274 112.746 116.807C112.439 116.341 112.286 115.814 112.286 115.227C112.286 114.507 112.472 113.941 112.846 113.527C113.219 113.101 113.826 112.794 114.666 112.607C115.506 112.421 116.632 112.327 118.046 112.327H119.046V113.767H118.066C117.439 113.767 116.912 113.794 116.486 113.847C116.059 113.887 115.712 113.961 115.446 114.067C115.192 114.161 115.006 114.294 114.886 114.467C114.779 114.641 114.726 114.854 114.726 115.107C114.726 115.547 114.879 115.907 115.186 116.187C115.492 116.467 115.919 116.607 116.466 116.607C116.906 116.607 117.292 116.507 117.626 116.307C117.972 116.094 118.246 115.807 118.446 115.447C118.646 115.087 118.746 114.674 118.746 114.207V111.907C118.746 111.241 118.599 110.761 118.306 110.467C118.012 110.174 117.519 110.027 116.826 110.027C116.279 110.027 115.719 110.114 115.146 110.287C114.572 110.447 113.992 110.701 113.406 111.047L112.686 109.347C113.032 109.107 113.439 108.901 113.906 108.727C114.386 108.541 114.886 108.401 115.406 108.307C115.939 108.201 116.439 108.147 116.906 108.147C117.866 108.147 118.652 108.294 119.266 108.587C119.892 108.881 120.359 109.327 120.666 109.927C120.972 110.514 121.126 111.274 121.126 112.207V118.127H118.786V116.047H118.946C118.852 116.514 118.666 116.921 118.386 117.267C118.119 117.601 117.779 117.861 117.366 118.047C116.952 118.234 116.479 118.327 115.946 118.327ZM128.243 118.327C127.697 118.327 127.163 118.281 126.643 118.187C126.137 118.094 125.67 117.967 125.243 117.807C124.817 117.634 124.443 117.421 124.123 117.167L124.763 115.527C125.097 115.741 125.457 115.927 125.843 116.087C126.23 116.247 126.63 116.367 127.043 116.447C127.457 116.527 127.863 116.567 128.263 116.567C128.903 116.567 129.377 116.461 129.683 116.247C130.003 116.021 130.163 115.727 130.163 115.367C130.163 115.061 130.057 114.827 129.843 114.667C129.643 114.494 129.337 114.367 128.923 114.287L126.923 113.907C126.097 113.747 125.463 113.447 125.023 113.007C124.597 112.554 124.383 111.974 124.383 111.267C124.383 110.627 124.557 110.074 124.903 109.607C125.263 109.141 125.757 108.781 126.383 108.527C127.01 108.274 127.73 108.147 128.543 108.147C129.01 108.147 129.463 108.194 129.903 108.287C130.343 108.367 130.757 108.494 131.143 108.667C131.543 108.827 131.89 109.041 132.183 109.307L131.503 110.947C131.25 110.734 130.957 110.554 130.623 110.407C130.29 110.247 129.943 110.127 129.583 110.047C129.237 109.954 128.897 109.907 128.563 109.907C127.91 109.907 127.423 110.021 127.103 110.247C126.797 110.474 126.643 110.774 126.643 111.147C126.643 111.427 126.737 111.661 126.923 111.847C127.11 112.034 127.397 112.161 127.783 112.227L129.783 112.607C130.65 112.767 131.303 113.061 131.743 113.487C132.197 113.914 132.423 114.487 132.423 115.207C132.423 115.861 132.25 116.421 131.903 116.887C131.557 117.354 131.07 117.714 130.443 117.967C129.817 118.207 129.083 118.327 128.243 118.327ZM139.811 118.327C138.505 118.327 137.531 118.001 136.891 117.347C136.251 116.694 135.931 115.741 135.931 114.487V110.227H134.051V108.347H135.931V105.427H138.431V108.347H141.391V110.227H138.431V114.347C138.431 114.987 138.571 115.467 138.851 115.787C139.131 116.107 139.585 116.267 140.211 116.267C140.398 116.267 140.591 116.247 140.791 116.207C140.991 116.154 141.198 116.101 141.411 116.047L141.791 117.887C141.551 118.021 141.245 118.127 140.871 118.207C140.511 118.287 140.158 118.327 139.811 118.327Z" fill="#333333"/>
<path d="M71.1294 6.25253C76.2014 6.25253 80.9758 8.21253 84.5655 11.77L89.0198 7.34753C86.6733 5.01379 83.8847 3.16321 80.8144 1.90224C77.744 0.641268 74.4526 -0.00519755 71.1294 3.14815e-05C67.8057 -0.00519947 64.5137 0.641499 61.4429 1.90291C58.3721 3.16432 55.5832 5.01554 53.2366 7.35003L57.6934 11.77C59.454 10.0151 61.548 8.62383 63.8542 7.67675C66.1605 6.72968 68.6333 6.2456 71.1294 6.25253ZM71.1294 19.0525C71.9299 19.0503 72.7229 19.2055 73.4624 19.5094C74.2019 19.8132 74.8732 20.2595 75.4376 20.8225L79.8944 16.4025C78.7452 15.2586 77.379 14.3516 75.8747 13.7338C74.3704 13.1159 72.7577 12.7994 71.1294 12.8025C69.5011 12.8011 67.8885 13.1184 66.384 13.7362C64.8796 14.3539 63.5128 15.26 62.362 16.4025L66.8188 20.8225C67.3836 20.2597 68.0555 19.8136 68.7955 19.5102C69.5354 19.2068 70.3288 19.0496 71.1294 19.0525Z" fill="#003366"/>
<path d="M107.422 42.55H99.8669V91.6001H104.45C104.523 88.9704 105.633 86.4742 107.542 84.6478C109.451 82.8214 112.007 81.8106 114.659 81.8325C117.312 81.81 119.867 82.8206 121.777 84.6471C123.686 86.4736 124.796 88.9702 124.869 91.6001H131.851V66.9075H131.977C131.977 53.495 120.939 42.55 107.422 42.55ZM109.928 62.78V50.655C117.631 50.655 123.807 56.065 123.807 62.78H109.928Z" fill="#003366"/>
<path d="M99.8871 30.3174H11V91.4974H18.0886C18.2398 88.926 19.3818 86.5107 21.2783 84.7508C23.1747 82.991 25.6807 82.0213 28.2778 82.0424C30.8812 82.0213 33.3925 82.9964 35.2894 84.7649C37.1862 86.5334 38.3226 88.9591 38.462 91.5374L99.8871 91.6024V30.3174Z" fill="#FF6600"/>
<path d="M28.2778 84.5273C27.2491 84.5267 26.2303 84.7272 25.2798 85.1173C24.3292 85.5074 23.4655 86.0795 22.7381 86.8009C22.0107 87.5223 21.4338 88.3789 21.0404 89.3216C20.647 90.2643 20.4449 91.2746 20.4456 92.2949C20.4338 93.3183 20.6283 94.3337 21.0176 95.2815C21.407 96.2294 21.9835 97.0905 22.7131 97.8143C23.4427 98.5381 24.3108 99.1101 25.2664 99.4965C26.222 99.883 27.2459 100.076 28.2778 100.065C29.3095 100.076 30.3331 99.8824 31.2884 99.4958C32.2437 99.1092 33.1115 98.5372 33.8409 97.8134C34.5702 97.0896 35.1464 96.2286 35.5357 95.2809C35.9249 94.3333 36.1193 93.3181 36.1075 92.2949C36.1055 90.2358 35.28 88.2617 33.8122 86.8055C32.3443 85.3493 30.354 84.53 28.2778 84.5273Z" fill="#003366"/>
<path d="M114.833 84.5273C113.804 84.5267 112.785 84.7272 111.835 85.1173C110.884 85.5074 110.02 86.0795 109.293 86.8009C108.566 87.5223 107.989 88.3789 107.595 89.3216C107.202 90.2643 107 91.2746 107.001 92.2949C106.989 93.3183 107.183 94.3337 107.573 95.2815C107.962 96.2294 108.538 97.0905 109.268 97.8143C109.998 98.5381 110.866 99.1101 111.821 99.4965C112.777 99.883 113.801 100.076 114.833 100.065C115.864 100.076 116.888 99.8824 117.843 99.4958C118.799 99.1092 119.666 98.5372 120.396 97.8134C121.125 97.0896 121.701 96.2286 122.091 95.2809C122.48 94.3333 122.674 93.3181 122.662 92.2949C122.66 90.2358 121.835 88.2617 120.367 86.8055C118.899 85.3493 116.909 84.53 114.833 84.5273Z" fill="#003366"/>
</svg>
