<svg width="36" height="38" viewBox="0 0 36 38" fill="none" xmlns="http://www.w3.org/2000/svg">
<path d="M28.5483 16.6901L13.1666 32.0717V37.3334H3.99992C1.96492 37.3334 0.333252 35.7017 0.333252 33.6667V4.33341C0.333252 3.36095 0.71956 2.42832 1.40719 1.74069C2.09483 1.05306 3.02746 0.666748 3.99992 0.666748H5.83325V13.5001L10.4166 10.7501L14.9999 13.5001V0.666748H25.9999C26.9724 0.666748 27.905 1.05306 28.5926 1.74069C29.2803 2.42832 29.6666 3.36095 29.6666 4.33341V15.8834C29.2633 16.1034 28.8783 16.3601 28.5483 16.6901ZM16.8333 33.5934V37.3334H20.5733L31.8116 26.1134L28.0716 22.3551L16.8333 33.5934ZM34.8916 21.6951L32.4716 19.2751C32.1049 18.9084 31.4999 18.9084 31.1516 19.2751L29.3549 21.0717L33.0949 24.8117L34.8916 23.0151C35.2583 22.6667 35.2583 22.0617 34.8916 21.6951Z" fill="white"/>
</svg>
