<svg width="36" height="44" viewBox="0 0 36 44" fill="none" xmlns="http://www.w3.org/2000/svg">
<path d="M30.61 0C27.6479 0 25.22 2.42044 25.22 5.37504C25.22 6.51948 25.5852 7.5834 26.2043 8.45768L29.9526 14.9371C30.4775 15.6226 30.8265 15.4924 31.2629 14.901L35.3967 7.86544C35.4803 7.71452 35.5459 7.55392 35.6027 7.38936C35.8656 6.75039 36.0006 6.06601 36 5.37504C36 2.42 33.5729 0 30.61 0ZM30.61 2.51856C32.2054 2.51856 33.4744 3.784 33.4744 5.37504C33.4744 6.96608 32.2054 8.23064 30.61 8.23064C29.0145 8.23064 27.7456 6.96564 27.7456 5.37504C27.7456 3.78444 29.015 2.51856 30.61 2.51856Z" fill="white"/>
<path fill-rule="evenodd" clip-rule="evenodd" d="M30.812 16.4612C29.8233 16.4832 28.832 16.525 27.8389 16.5985L27.992 19.0325C28.9459 18.9634 29.9015 18.9189 30.8577 18.8992L30.812 16.4612ZM25.543 16.822C24.0162 17.0116 22.4762 17.2818 20.9538 17.7161L21.5271 20.0749C22.9105 19.6807 24.344 19.4259 25.7999 19.2451L25.543 16.822ZM18.6741 18.5327C18.218 18.734 17.7763 18.9668 17.3524 19.2292L17.3506 19.2314L17.348 19.2323C16.743 19.6133 16.1054 20.0969 15.5849 20.7996C15.2078 21.3087 14.8994 21.9524 14.8272 22.7136L17.069 22.9622C17.0857 22.7835 17.1773 22.5477 17.3418 22.3259H17.3427V22.3251C17.608 21.966 18.0058 21.64 18.4788 21.3417L18.4805 21.3408C18.8179 21.1331 19.169 20.9485 19.5313 20.7881L18.6741 18.5327ZM17.52 24.0481L16.0667 25.9115C16.4112 26.2265 16.7725 26.4685 17.1214 26.6709L17.1258 26.6731L17.1302 26.6758C18.2883 27.3345 19.4824 27.7063 20.5895 28.0591L21.2257 25.7192C20.1191 25.3663 19.0759 25.0258 18.1818 24.518C17.9257 24.3693 17.7013 24.214 17.52 24.0481ZM23.3874 26.3775L22.7661 28.7213L23.0601 28.8129L23.4209 28.9281C24.615 29.3167 25.759 29.7316 26.7816 30.3058L27.8191 28.141C26.5827 27.4462 25.2992 26.9921 24.0624 26.59L24.0589 26.5891L23.6884 26.4707L23.3874 26.3775ZM29.9289 29.7655L28.3348 31.4903C28.7114 31.8981 28.9935 32.3887 29.1307 32.8956L29.1316 32.8983L29.1325 32.9022C29.2962 33.494 29.2966 34.1901 29.1686 34.8932L31.3791 35.3649C31.5595 34.3723 31.5886 33.2824 31.292 32.2066C31.0337 31.2553 30.5409 30.429 29.9289 29.7655ZM28.3968 36.3628C28.1529 36.6198 27.8837 36.8515 27.5934 37.0545H27.5925C26.8005 37.6115 25.8818 38.0313 24.9059 38.3921L25.6336 40.6995C26.7011 40.3048 27.7971 39.8208 28.8214 39.1001L28.8241 39.0979L28.8254 39.097C29.2459 38.8023 29.635 38.4651 29.9865 38.0907L28.3968 36.3628ZM22.8352 39.042C21.4215 39.4221 19.9765 39.7117 18.514 39.9572L18.8589 42.3679C20.3642 42.1149 21.8756 41.8127 23.3777 41.4087L22.8352 39.042ZM16.3135 40.2898C14.8413 40.4909 13.3611 40.655 11.8766 40.7949L12.0711 43.2246C13.5785 43.0829 15.0886 42.9162 16.5965 42.7098L16.3135 40.2898ZM9.64533 40.9863C8.15769 41.1043 6.66653 41.2002 5.17405 41.2811L5.28669 43.717C6.79369 43.6356 8.30201 43.5383 9.80989 43.4187L9.64533 40.9863ZM2.93137 41.3911C2.03685 41.4329 1.14013 41.4673 0.241211 41.4989L0.315131 43.937C1.21967 43.9059 2.12403 43.8698 3.02817 43.8287L2.93137 41.3911Z" fill="white"/>
</svg>
